<svg width="42" height="16" viewBox="0 0 42 16" fill="none" xmlns="http://www.w3.org/2000/svg">
<path d="M2.52234 15.7143C2.12595 15.8756 1.72959 15.9882 1.34544 15.9997C0.975103 16.0103 0.583301 15.7554 0.626936 15.3483C0.653697 15.0949 0.815177 14.8788 0.973552 14.6786C1.67833 13.789 2.49632 13.006 3.22404 12.1377C4.63352 10.4567 6.0966 8.81149 7.73704 7.34736C9.58908 5.69531 11.5815 4.18628 13.712 2.90708C14.7892 2.24199 15.8232 1.71006 16.811 1.29152C16.9244 1.2413 17.0374 1.19412 17.1508 1.14694C17.1616 1.14314 17.1731 1.13781 17.1835 1.13324C17.2517 1.10509 17.3205 1.07541 17.388 1.04801C17.4997 1.00768 17.6091 0.969631 17.7194 0.931583C21.3118 -0.308808 24.7874 -0.260866 28.4443 0.780911C32.3522 1.89422 36.3006 2.86675 40.2767 3.70536C40.5743 3.76774 40.7046 4.11324 40.5271 4.35901C36.7069 9.65162 29.942 12.7587 23.4078 11.8775C21.5079 11.621 19.6177 11.2946 17.6924 11.2892C14.7119 11.2816 11.7958 12.0312 8.99919 13.0014C7.60341 13.4854 6.22821 14.0272 4.85467 14.5706C4.14153 14.8529 3.33038 15.3848 2.52156 15.7135" fill="white"/>
<path d="M1.83823 13.3561C1.42196 13.458 1.01335 13.5113 0.632281 13.4656C0.264977 13.4222 -0.0854853 13.1125 0.0185908 12.7161C0.0836214 12.4695 0.274934 12.2793 0.46088 12.105C1.28957 11.328 2.21472 10.6736 3.06332 9.92174C4.70697 8.46601 6.3973 7.05287 8.23685 5.8452C10.313 4.48231 12.5075 3.28223 14.8047 2.32949C15.9686 1.82953 17.0695 1.45513 18.1096 1.18575C18.229 1.15302 18.3482 1.12258 18.4669 1.09214C18.4784 1.0891 18.4899 1.08606 18.5014 1.08301C18.5726 1.06551 18.6451 1.04573 18.7157 1.02822C18.8318 1.00463 18.9468 0.983326 19.0606 0.962016C22.7981 0.261919 26.2284 0.818191 29.6909 2.38504C33.3906 4.05843 37.1524 5.5994 40.9607 7.01103C41.2462 7.1168 41.3235 7.47749 41.1116 7.69439C36.5486 12.369 29.397 14.4511 23.065 12.6224C21.2241 12.0905 19.4028 11.4901 17.4998 11.2025C14.553 10.7581 11.5572 11.0723 8.64688 11.6218C7.19474 11.8957 5.75455 12.2306 4.3152 12.5669C3.56838 12.7412 2.68761 13.1483 1.83823 13.3561Z" fill="white"/>
</svg>
