<svg width="25" height="32" viewBox="0 0 25 32" fill="none" xmlns="http://www.w3.org/2000/svg">
<path d="M7.03834 14.3407C7.00645 13.8496 6.88345 13.3723 6.69668 12.9266C6.56458 12.6084 6.40514 12.3084 6.2047 12.0219C5.90405 11.5763 5.52139 11.1671 5.08407 10.8125C3.968 9.91223 2.47382 9.32117 0.811095 9.22569C0.797429 9.22569 0.783761 9.22569 0.770094 9.22569H0.656209C0.483104 9.24842 0.346442 9.37572 0.31911 9.54395C0.314554 9.57124 0.309998 9.59851 0.309998 9.62579L0.396551 14.7953L0.432995 19.2101H7.03379L7.06112 14.7953V14.6862C7.06112 14.5725 7.052 14.4589 7.03834 14.3452V14.3407ZM24.6905 0.323305C24.686 0.296026 24.6769 0.273293 24.6678 0.246013C24.6495 0.200545 24.6222 0.155079 24.5857 0.118705C24.5767 0.118705 24.5676 0.105066 24.5585 0.0959723C24.5493 0.0823323 24.5402 0.0777857 24.5311 0.0686922C24.4628 0.0232256 24.3762 -0.00405444 24.2852 0.000492231C22.7637 0.0914256 21.397 0.682493 20.3812 1.59183C19.9848 1.94647 19.6386 2.35567 19.3653 2.80124C19.1831 3.08769 19.0373 3.38776 18.9188 3.70602C18.7503 4.15161 18.6409 4.629 18.6091 5.12004C18.6 5.23371 18.5909 5.34738 18.5909 5.46104V5.57017L18.6181 7.71165H24.6085L24.6359 5.57017L24.6997 0.400599C24.6997 0.373319 24.6952 0.346039 24.6905 0.323305ZM18.6547 20.1923C18.6547 24.4706 16.8097 26.8258 12.6097 26.8258C8.71017 26.8258 6.99734 24.4706 6.99734 20.1923V18.9783H0.455773L0.437551 20.2378C0.437551 27.8534 4.63764 32 12.6097 32C20.5815 32 24.5721 27.8534 24.5721 20.2378V7.61162L21.6421 7.72933L18.6547 7.61162V20.1923Z" fill="white"/>
<path d="M3.68532 7.35748C5.72067 7.35748 7.37065 5.71068 7.37065 3.67923C7.37065 1.64779 5.72067 0.000976562 3.68532 0.000976562C1.64997 0.000976562 0 1.64779 0 3.67923C0 5.71068 1.64997 7.35748 3.68532 7.35748Z" fill="white"/>
</svg>
